<svg viewBox="49.152 288.768 960.512 415.744" shape-rendering="geometricPrecision" xmlns="http://www.w3.org/2000/svg" style="max-height: 500px" width="960.512" height="415.744">
  <metadata>null</metadata>

<path fill-rule="evenodd" fill="rgb(19,85,17)" opacity="1" d="M 108.963 438.594&#10;C 111.286 417.978 125.637 400.4 145.768 394.92&#10;C 156.706 391.943 168.786 393.214 180.006 393.211&#10;C 199.839 393.206 219.672 393.235 239.506 393.216&#10;C 246.84 393.208 254.174 393.204 261.508 393.197&#10;C 266.472 393.192 271.574 392.904 276.516 393.432&#10;C 285.086 394.349 293.024 397.371 300.019 402.385&#10;C 311.514 410.626 318.869 423.395 320.725 437.372&#10;C 321.926 446.42 321.202 455.906 321.188 465.012&#10;C 321.161 483.342 321.25 501.672 321.201 520.002&#10;C 321.179 528.268 321.167 536.533 321.144 544.799&#10;C 321.129 550.719 321.326 556.771 320.528 562.65&#10;C 319.803 567.987 318.238 573.281 315.723 578.057&#10;C 308.152 592.439 294.549 602.428 278.348 604.693&#10;C 270.546 605.783 262.356 604.978 254.501 604.946&#10;C 242.333 604.897 230.164 604.898 217.996 604.898&#10;C 207.93 604.898 197.862 604.87 187.796 604.914&#10;C 180.035 604.948 172.27 604.97 164.499 604.931&#10;C 159.421 604.905 154.273 605.114 149.264 604.114&#10;C 141.998 602.664 135.141 599.798 129.085 595.521&#10;C 117.527 587.36 110.686 574.33 109.025 560.43&#10;C 108.224 553.728 108.71 546.746 108.693 540.007&#10;C 108.64 518.007 108.661 496.007 108.656 474.006&#10;C 108.654 466.673 108.664 459.34 108.679 452.007&#10;C 108.687 447.564 108.465 443.015 108.963 438.594 Z&#10;M 120.985 460.126&#10;C 120.505 487.686 120.971 515.281 120.889 542.845&#10;C 120.871 549.02 120.511 555.392 121.444 561.513&#10;C 122.926 571.237 128.338 580.453 136.609 585.928&#10;C 150.335 595.013 167.361 592.743 183.004 592.728&#10;C 204.171 592.707 225.338 592.702 246.505 592.728&#10;C 252.623 592.735 258.742 592.721 264.86 592.741&#10;C 270.43 592.759 275.829 592.872 281.263 591.459&#10;C 296.705 587.444 307.865 573.648 308.709 557.713&#10;C 309.301 546.519 308.81 535.21 308.804 524.003&#10;C 308.794 503.17 308.834 482.336 308.811 461.503&#10;C 308.803 454.016 309.589 446.06 308.492 438.639&#10;C 307.018 428.68 302.211 420.078 294.475 413.671&#10;C 284.437 405.358 272.144 405.516 259.852 405.545&#10;C 249.741 405.569 239.621 405.473 229.504 405.463&#10;C 212.171 405.446 194.838 405.437 177.505 405.45&#10;C 169.554 405.456 160.902 404.472 153.046 405.869&#10;C 139.611 408.256 128.188 417.612 123.409 430.436&#10;C 119.898 439.86 121.157 450.275 120.985 460.126 Z"/>
<path fill-rule="evenodd" fill="rgb(20,86,20)" opacity="1" d="M 142.858 499.022&#10;C 144.788 495.004 149.572 491.691 152.717 488.599&#10;C 160.001 481.438 167.417 474.41 174.639 467.186&#10;C 177.622 464.203 181.745 458.039 186.594 459.35&#10;C 189.399 460.108 191.87 463.301 193.987 465.158&#10;C 198.687 469.283 203.444 473.34 208.176 477.428&#10;C 210.021 479.021 212.248 481.843 214.439 482.848&#10;C 224.907 473.023 234.883 462.617 245.135 452.564&#10;C 248.645 449.123 252.108 445.628 255.556 442.126&#10;C 256.914 440.747 258.277 439.373 259.632 437.993&#10;C 259.851 437.769 261.003 436.986 260.603 436.757&#10;C 257.926 436.632 254.354 437.539 251.819 436.547&#10;C 246.914 434.628 246.37 427.812 250.876 425.133&#10;C 252.9 423.93 255.802 424.356 258.06 424.326&#10;C 262.956 424.259 267.927 424.161 272.799 423.638&#10;C 275.239 423.376 277.843 422.793 279.838 424.607&#10;C 282.209 426.763 281.844 429.617 281.749 432.507&#10;C 281.573 437.854 281.762 443.221 281.513 448.559&#10;C 281.416 450.657 282.153 453.581 281.076 455.482&#10;C 278.833 459.441 272.678 459.275 270.529 455.422&#10;C 269.639 453.828 270.025 452.231 270.085 450.511&#10;C 270.146 448.768 269.989 446.978 269.974 445.23&#10;C 269.106 445.319 267.427 447.37 266.807 448.046&#10;C 264.259 450.829 261.39 453.311 258.804 456.06&#10;C 248.943 466.544 238.527 476.489 228.242 486.553&#10;C 225.48 489.256 222.741 491.982 219.995 494.701&#10;C 218.356 496.324 216.632 497.981 214.14 497.652&#10;C 210.85 497.218 207.55 492.975 205.182 490.906&#10;C 198.786 485.319 192.52 479.012 185.533 474.176&#10;C 184.363 474.588 183.31 476.08 182.423 476.947&#10;C 180.354 478.969 178.273 480.985 176.183 482.986&#10;C 168.507 490.334 161.297 498.721 152.982 505.34&#10;C 148.07 509.25 141.125 505.507 142.858 499.022 Z"/>
<path fill-rule="evenodd" fill="rgb(17,84,16)" opacity="1" d="M 146.851 529.072&#10;C 146.993 528.617 147.101 528.239 147.43 527.886&#10;C 149.948 527.312 152.925 527.71 155.505 527.712&#10;C 160.671 527.716 165.838 527.709 171.004 527.736&#10;C 173.216 527.747 177.515 526.955 179.409 528.091&#10;C 180.451 529.169 180.178 530.604 180.166 531.998&#10;C 180.144 534.499 180.189 537.002 180.189 539.503&#10;C 180.192 548.335 180.135 557.168 180.137 566&#10;C 180.138 568.334 180.12 570.669 180.158 573.003&#10;C 180.182 574.418 180.364 575.9 179.664 577.192&#10;C 177.885 578.238 174.026 577.435 172.003 577.434&#10;C 166.17 577.432 160.336 577.451 154.503 577.429&#10;C 152.46 577.421 149.162 578.127 147.369 577.02&#10;C 146.663 576.05 146.891 574.645 146.875 573.496&#10;C 146.831 570.498 146.824 567.499 146.817 564.501&#10;C 146.799 556.668 146.795 548.836 146.798 541.003&#10;C 146.799 537.074 146.468 532.981 146.851 529.072 Z"/>
<path fill-rule="evenodd" fill="rgb(18,85,16)" opacity="1" d="M 198.793 515.813&#10;C 200.513 514.506 204.431 515.267 206.507 515.279&#10;C 212.507 515.312 218.507 515.25 224.506 515.325&#10;C 226.524 515.351 229.723 514.761 231.438 515.945&#10;C 232.303 517.065 231.955 518.779 231.951 520.116&#10;C 231.944 522.94 232.053 525.769 232.076 528.595&#10;C 232.17 540.212 231.96 551.827 231.941 563.435&#10;C 231.936 566.438 231.819 569.468 231.984 572.468&#10;C 232.077 574.158 232.497 575.805 231.244 577.178&#10;C 229.246 578.057 226.163 577.356 223.999 577.354&#10;C 218.332 577.348 212.665 577.342 206.998 577.342&#10;C 204.77 577.342 200.962 578.16 199.055 576.906&#10;C 198.341 575.565 198.79 573.495 198.784 572.005&#10;C 198.769 568.006 198.754 564.006 198.738 560.007&#10;C 198.697 550.173 198.646 540.34 198.66 530.506&#10;C 198.667 525.672 198.201 520.614 198.793 515.813 Z"/>
<path fill-rule="evenodd" fill="rgb(17,84,16)" opacity="1" d="M 250.323 478.055&#10;C 250.575 477.276 250.351 477.649 251.11 477.017&#10;C 253.81 476.549 256.761 476.825 259.5 476.834&#10;C 264.5 476.851 269.501 476.843 274.501 476.856&#10;C 276.775 476.862 281.067 476.036 282.915 477.465&#10;C 283.985 479.091 283.375 481.786 283.382 483.645&#10;C 283.399 488.6 283.412 493.555 283.416 498.511&#10;C 283.433 517.176 283.411 535.844 283.375 554.509&#10;C 283.364 560.095 283.304 565.685 283.343 571.27&#10;C 283.354 572.809 284.127 576.188 282.635 577.205&#10;C 280.179 577.657 277.489 577.322 274.999 577.323&#10;C 269.832 577.326 264.665 577.291 259.498 577.288&#10;C 257.066 577.286 252.783 578.189 250.705 576.807&#10;C 249.649 574.865 250.323 571.183 250.313 569.001&#10;C 250.285 562.667 250.248 556.334 250.246 550.001&#10;C 250.242 534.002 250.231 518.002 250.216 502.003&#10;C 250.211 496.837 250.192 491.671 250.19 486.505&#10;C 250.189 483.707 249.946 480.835 250.323 478.055 Z"/>
<path fill-rule="evenodd" fill="rgb(20,85,19)" opacity="1" d="M 370.437 486.031&#10;C 375.536 477.132 382.04 468.975 387.608 460.362&#10;C 389.504 457.427 392.247 454.535 393.591 451.304&#10;C 393.695 450.58 392.878 449.677 392.53 449.085&#10;C 391.537 447.396 390.477 445.746 389.434 444.087&#10;C 385.171 437.302 380.751 430.606 376.452 423.842&#10;C 375.301 422.032 374.274 420.098 372.984 418.383&#10;C 372.165 417.293 371.356 416.261 372.092 414.902&#10;C 373.368 414.179 375.065 414.43 376.497 414.417&#10;C 379.238 414.392 381.99 414.326 384.731 414.43&#10;C 385.938 414.476 387.477 414.336 388.561 414.904&#10;C 391.213 417.506 393.06 421.28 394.907 424.47&#10;C 397.715 429.316 401.077 433.899 403.694 438.844&#10;C 404.308 438.633 404.814 437.134 405.158 436.578&#10;C 406.409 434.548 407.657 432.516 408.917 430.492&#10;C 410.925 427.267 413.02 424.093 414.954 420.822&#10;C 416.02 419.018 417.03 416.61 418.61 415.202&#10;C 419.687 414.242 421.579 414.47 422.944 414.414&#10;C 425.72 414.299 428.522 414.381 431.298 414.467&#10;C 432.669 414.509 434.232 414.387 435.502 414.956&#10;C 436.076 416.613 435.138 417.497 434.228 418.776&#10;C 432.947 420.575 431.846 422.528 430.661 424.393&#10;C 426.512 430.924 422.021 437.235 417.831 443.74&#10;C 416.576 445.689 413.557 448.667 413.329 450.987&#10;C 414.913 454.235 417.327 457.214 419.37 460.192&#10;C 423.463 466.159 427.521 472.177 431.419 478.272&#10;C 432.824 480.47 434.121 482.752 435.623 484.885&#10;C 436.292 485.835 436.913 486.847 435.768 487.76&#10;C 434.143 488.319 432.057 487.94 430.357 487.955&#10;C 426.758 487.985 422.738 488.473 419.188 487.789&#10;C 417.066 485.843 415.565 482.524 414.049 480.084&#10;C 410.518 474.403 407.204 468.515 403.441 462.995&#10;C 400.344 468.212 396.927 473.235 393.774 478.418&#10;C 391.924 481.461 390.171 485.051 387.739 487.665&#10;C 386.474 488.303 384.401 487.975 383.005 487.952&#10;C 380.336 487.908 377.664 487.819 374.995 487.805&#10;C 373.424 487.797 371.798 488.014 370.273 487.564&#10;C 370.131 486.959 370.244 486.612 370.437 486.031 Z"/>
<path fill-rule="evenodd" fill="rgb(20,87,18)" opacity="1" d="M 372.241 509.973&#10;C 373.325 506.971 377.599 508.02 380.01 508.023&#10;C 387.55 508.032 395.161 507.755 402.689 508.155&#10;C 406.609 508.364 410.496 509.264 414.174 510.619&#10;C 433.448 517.719 440.924 539.619 434.488 558.239&#10;C 430.204 570.634 420.041 578.532 407.286 580.731&#10;C 401.652 581.702 395.7 581.163 390.008 581.114&#10;C 386.006 581.08 382.002 581.071 378 581.098&#10;C 376.46 581.109 374.366 581.523 373.109 580.385&#10;C 371.805 579.204 372.212 576.989 372.221 575.42&#10;C 372.244 571.448 372.241 567.476 372.24 563.505&#10;C 372.237 551.006 372.234 538.506 372.17 526.008&#10;C 372.151 522.341 372.163 518.674 372.141 515.007&#10;C 372.132 513.504 371.724 511.406 372.241 509.973 Z&#10;M 387.809 522.938&#10;C 387.215 531.204 387.721 539.715 387.761 548.004&#10;C 387.789 554.008 387.231 560.452 388.054 566.402&#10;C 397.456 565.016 406.446 568.172 414.437 561.241&#10;C 424.962 552.112 423.21 533.126 411.516 525.893&#10;C 404.8 521.738 395.397 522.411 387.809 522.938 Z"/>
<path fill-rule="evenodd" fill="rgb(21,87,19)" opacity="1" d="M 442.436 549.091&#10;C 443.581 543.765 445.293 538.668 448.935 534.472&#10;C 458.243 523.751 474.313 521.272 485.501 530.513&#10;C 485.847 529.109 485.294 527.773 485.911 526.347&#10;C 488.767 525.406 492.345 525.778 495.319 525.802&#10;C 496.799 525.814 498.088 525.777 499.327 526.67&#10;C 500.098 527.627 499.872 528.848 499.882 530.003&#10;C 499.904 532.672 499.934 535.34 499.933 538.01&#10;C 499.93 548.173 500.068 558.335 500.089 568.497&#10;C 500.096 571.458 500.112 574.419 500.163 577.379&#10;C 500.182 578.503 500.19 580.149 499.16 580.849&#10;C 497.565 581.291 495.862 581.126 494.226 581.15&#10;C 491.691 581.189 488.717 581.508 486.281 580.686&#10;C 485.286 579.728 485.377 577.836 485.223 576.537&#10;C 481.594 578.995 478.305 581.211 473.909 582.053&#10;C 471.27 582.559 468.573 582.525 465.916 582.219&#10;C 449.781 580.362 440.33 564.372 442.436 549.091 Z&#10;M 456.942 549.587&#10;C 455.231 556.255 458.048 563.739 464.148 567.051&#10;C 472.319 571.487 483.202 567.032 485.505 557.927&#10;C 487.125 551.521 484.938 544.485 479.118 540.894&#10;C 470.938 535.848 459.371 540.123 456.942 549.587 Z"/>
<path fill-rule="evenodd" fill="rgb(21,87,19)" opacity="1" d="M 446.341 416.552&#10;C 447.14 414.128 449.488 414.32 451.592 414.29&#10;C 456.728 414.219 461.869 414.272 467.005 414.273&#10;C 477.223 414.274 488.316 413.784 495.952 421.889&#10;C 504.88 431.366 505.097 448.022 496.209 457.581&#10;C 493.561 460.43 489.79 462.318 486.126 463.477&#10;C 478.171 465.993 470.015 463.755 461.948 464.953&#10;C 461.688 470.625 461.868 476.323 461.832 482.002&#10;C 461.821 483.719 462.551 487.027 460.551 487.908&#10;C 457.389 488.099 454.168 487.957 451.001 487.919&#10;C 449.633 487.903 447.793 488.258 446.609 487.45&#10;C 445.74 485.961 446.225 483.423 446.217 481.735&#10;C 446.198 477.326 446.218 472.917 446.194 468.507&#10;C 446.135 457.508 446.204 446.506 446.196 435.507&#10;C 446.192 429.274 445.726 422.752 446.341 416.552 Z&#10;M 461.725 429.203&#10;C 462.113 435.987 462.165 443.231 461.821 450.021&#10;C 466.002 449.543 470.402 450.048 474.609 450.053&#10;C 476.899 450.056 479.398 450.073 481.47 448.966&#10;C 488.146 445.397 488.712 434.161 481.833 430.469&#10;C 479.273 429.096 476.302 429.258 473.488 429.24&#10;C 469.569 429.215 465.642 429.118 461.725 429.203 Z"/>
<path fill-rule="evenodd" fill="rgb(23,87,20)" opacity="1" d="M 508.445 565.614&#10;C 508.503 565.031 508.6 564.465 508.75 563.899&#10;C 509.815 563.029 511.268 563.181 512.568 563.126&#10;C 515.649 562.996 519.174 562.547 522.211 563.206&#10;C 523.195 568.455 528.443 570.26 533.158 569.849&#10;C 536.173 569.586 539.994 567.927 539.158 564.234&#10;C 538.836 562.81 537.508 561.878 536.266 561.284&#10;C 533.386 559.908 529.97 559.594 526.884 558.88&#10;C 522.193 557.795 517.172 556.108 513.72 552.574&#10;C 508.731 547.467 508.469 538.085 512.861 532.544&#10;C 520.145 523.355 536.097 521.813 545.252 529.222&#10;C 548.311 531.698 550.49 534.89 551.624 538.678&#10;C 552.126 540.352 552.291 542.631 550.479 543.508&#10;C 546.858 544.598 542.451 543.425 538.734 543.505&#10;C 538.12 542.452 537.971 541.211 537.298 540.185&#10;C 535.942 538.118 533.33 537.38 531.003 537.305&#10;C 527.792 537.201 521.7 539.063 524.194 543.566&#10;C 524.983 544.99 526.709 545.543 528.173 545.926&#10;C 531.225 546.725 534.364 547.188 537.401 548.038&#10;C 545.517 550.31 553.067 554.735 553.571 563.962&#10;C 553.659 565.581 553.477 567.287 553.102 568.863&#10;C 552.653 570.754 551.866 572.61 550.804 574.239&#10;C 544.25 584.295 527.389 584.683 517.819 579.299&#10;C 512.969 576.571 508.403 571.523 508.445 565.614 Z"/>
<path fill-rule="evenodd" fill="rgb(20,86,19)" opacity="1" d="M 511.459 416.579&#10;C 511.654 415.983 511.538 416.287 511.817 415.669&#10;C 512.845 414.134 514.277 414.616 515.853 414.501&#10;C 519.647 414.224 523.558 414.352 527.363 414.368&#10;C 528.751 414.374 530.81 414.134 531.973 415&#10;C 534.204 417.871 534.965 422.161 536.381 425.481&#10;C 540.005 433.974 543.229 442.635 546.72 451.183&#10;C 548.134 454.646 549.201 458.258 550.635 461.71&#10;C 551.004 462.599 551.093 463.675 551.614 464.483&#10;C 552.312 463.639 552.48 462.212 552.851 461.188&#10;C 553.752 458.7 554.644 456.204 555.579 453.729&#10;C 558.903 444.927 562.594 436.235 566.138 427.519&#10;C 567.376 424.474 568.522 421.385 569.701 418.316&#10;C 570.143 417.166 570.614 415.298 571.805 414.69&#10;C 573.049 414.054 575.139 414.43 576.508 414.419&#10;C 580.217 414.389 583.927 414.376 587.635 414.424&#10;C 589.335 414.446 591.002 414.477 591.909 416.223&#10;C 592.499 417.359 592.147 419.101 592.159 420.339&#10;C 592.194 423.726 592.212 427.114 592.206 430.501&#10;C 592.183 442.167 592.253 453.834 592.269 465.501&#10;C 592.277 471.001 592.283 476.501 592.271 482.001&#10;C 592.267 483.837 592.942 486.42 591.256 487.686&#10;C 588.207 488.618 584.171 487.938 580.998 487.922&#10;C 579.716 487.916 578.236 488.124 577.097 487.439&#10;C 576.397 486.235 576.643 484.56 576.637 483.21&#10;C 576.623 480.142 576.653 477.074 576.634 474.006&#10;C 576.59 467.008 576.52 459.998 576.67 453.001&#10;C 576.771 448.325 577.297 443.21 576.569 438.588&#10;C 574.442 443.171 572.755 447.994 570.826 452.667&#10;C 568.341 458.691 565.633 464.715 563.441 470.849&#10;C 562.145 474.477 560.684 478.049 559.304 481.646&#10;C 558.553 483.602 557.8 486.217 556.455 487.846&#10;C 554.119 487.963 551.822 487.815 549.489 487.766&#10;C 548.651 487.748 547.563 488.005 546.812 487.607&#10;C 541.706 475.409 536.755 463.13 532.049 450.756&#10;C 530.896 447.725 529.717 444.688 528.506 441.684&#10;C 528.211 440.952 527.592 438.685 526.938 438.494&#10;C 527.199 450.702 527.186 462.97 527.19 475.181&#10;C 527.191 478.028 527.123 480.879 527.173 483.726&#10;C 527.199 485.173 527.331 486.588 526.241 487.673&#10;C 524.904 488.357 523.278 488.067 521.839 487.994&#10;C 519.676 487.885 517.496 487.929 515.332 487.953&#10;C 514.134 487.965 512.909 488.117 511.975 487.239&#10;C 511.064 485.908 511.603 483.747 511.512 482.188&#10;C 511.247 477.638 511.414 473.051 511.407 468.495&#10;C 511.392 459.018 511.877 449.456 511.523 439.991&#10;C 511.237 432.325 510.774 424.227 511.459 416.579 Z"/>
<path fill-rule="evenodd" fill="rgb(20,87,20)" opacity="1" d="M 561.895 509.08&#10;C 562.087 508.206 562.315 507.506 562.942 506.847&#10;C 564.386 506.045 566.762 506.547 568.385 506.55&#10;C 570.71 506.553 574.008 505.923 575.812 507.69&#10;C 577.042 508.896 576.381 511.919 576.389 513.505&#10;C 576.418 519.013 576.599 524.56 576.496 530.062&#10;C 577.065 529.966 577.508 529.271 577.969 528.919&#10;C 579.004 528.129 580.059 527.395 581.215 526.791&#10;C 583.835 525.419 586.892 525.025 589.806 524.832&#10;C 592.211 524.673 594.673 524.979 597.022 525.471&#10;C 598.811 525.846 600.491 526.563 602.12 527.37&#10;C 613.935 533.22 612.729 547.404 612.745 558.532&#10;C 612.753 564.022 612.748 569.512 612.741 575.002&#10;C 612.739 576.657 613.413 579.551 611.791 580.62&#10;C 609.035 581.757 605.172 581.032 602.25 581.067&#10;C 600.95 581.083 599.498 581.069 598.723 579.84&#10;C 598.252 579.093 598.387 577.989 598.39 577.146&#10;C 598.399 575.072 598.351 572.997 598.351 570.923&#10;C 598.349 563.197 598.987 555.166 598.214 547.476&#10;C 597.49 540.265 589.631 536.912 583.269 539.422&#10;C 580.271 540.605 577.808 543.434 576.899 546.53&#10;C 576.159 549.048 576.445 552.079 576.445 554.673&#10;C 576.445 560.019 576.636 565.362 576.59 570.713&#10;C 576.567 573.45 577.658 579.127 575.215 580.919&#10;C 574.149 581.321 572.871 581.091 571.751 581.083&#10;C 569.282 581.064 564.952 581.858 562.784 580.545&#10;C 561.682 579.301 561.939 576.979 561.933 575.41&#10;C 561.916 571.105 561.936 566.8 561.92 562.494&#10;C 561.884 552.669 562.11 542.82 561.888 532.999&#10;C 561.767 527.666 561.794 522.335 561.825 517.001&#10;C 561.84 514.387 561.603 511.678 561.895 509.08 Z"/>
<path fill-rule="evenodd" fill="rgb(20,86,19)" opacity="1" d="M 623.412 509.086&#10;C 623.645 508.129 624.084 507.336 624.99 506.86&#10;C 625.908 506.379 627.093 506.529 628.088 506.54&#10;C 630.75 506.57 636.291 505.546 637.779 508.336&#10;C 638.617 509.909 638.098 512.748 638.113 514.501&#10;C 638.155 519.563 638.244 524.625 638.171 529.684&#10;C 638.603 530.003 641.502 527.547 642.306 527.177&#10;C 645.176 525.858 648.016 525.265 651.14 524.922&#10;C 662.722 523.65 674.327 530.831 678.97 541.408&#10;C 683.45 551.613 681.841 564.606 674.359 573.057&#10;C 667.769 580.5 658.015 584.046 648.229 581.884&#10;C 644.618 581.087 640.816 579.547 638.25 576.783&#10;C 638.261 578.251 638.058 579.483 637.182 580.696&#10;C 636.26 581.288 634.988 581.169 633.934 581.175&#10;C 631.371 581.191 628.703 581.421 626.15 581.178&#10;C 625.022 581.071 623.765 580.365 623.465 579.181&#10;C 622.893 576.924 623.403 573.826 623.4 571.492&#10;C 623.392 565.993 623.346 560.494 623.355 554.995&#10;C 623.371 546.163 623.548 537.326 623.412 528.493&#10;C 623.314 522.127 622.786 515.423 623.412 509.086 Z&#10;M 637.946 550.094&#10;C 636.629 556.432 639.389 563.598 645.068 566.855&#10;C 653.294 571.573 664.543 566.662 666.614 557.401&#10;C 667.747 552.332 666.552 546.572 662.663 542.928&#10;C 654.452 535.237 640.308 538.732 637.946 550.094 Z"/>
<path fill-rule="evenodd" fill="rgb(19,86,19)" opacity="1" d="M 687.429 550.097&#10;C 687.81 546.822 688.84 543.597 690.363 540.682&#10;C 693.631 534.425 699.028 529.286 705.635 526.7&#10;C 717.531 522.043 732.043 525.951 739.773 536.096&#10;C 741.761 538.706 743.41 541.543 744.364 544.699&#10;C 745.558 548.655 745.993 552.798 745.562 556.914&#10;C 745.182 560.549 744.051 564.084 742.41 567.338&#10;C 733.989 584.032 710.533 587.201 696.735 575.244&#10;C 692.889 571.911 690.069 567.16 688.558 562.346&#10;C 687.356 558.517 686.966 554.082 687.429 550.097 Z&#10;M 701.91 551.091&#10;C 700.62 558.414 704.608 565.745 711.756 568.072&#10;C 719.912 570.727 729.655 565.54 731.137 556.93&#10;C 731.588 554.307 731.465 551.555 730.67 549.008&#10;C 730.104 547.192 729.105 545.378 727.917 543.896&#10;C 720.082 534.123 703.989 539.298 701.91 551.091 Z"/>
<path fill-rule="evenodd" fill="rgb(21,87,20)" opacity="1" d="M 751.461 549.592&#10;C 752.173 546.347 752.831 542.987 754.441 540.026&#10;C 760.787 528.359 773.544 522.076 786.523 525.937&#10;C 789.591 526.85 791.88 528.496 794.379 530.408&#10;C 794.507 530.369 794.572 527.696 794.707 527.292&#10;C 795.349 526.074 796.498 525.972 797.758 525.914&#10;C 800.352 525.795 802.943 525.921 805.531 526.075&#10;C 806.838 526.154 808.19 526.322 808.743 527.718&#10;C 809.175 528.808 808.87 530.353 808.857 531.5&#10;C 808.827 534.167 808.857 536.835 808.871 539.502&#10;C 808.92 549.17 808.947 558.838 808.963 568.506&#10;C 808.967 571.17 808.904 573.841 808.968 576.505&#10;C 809.006 578.131 809.336 579.634 807.761 580.666&#10;C 805.225 581.36 802.107 580.934 799.501 580.844&#10;C 797.958 580.791 796.336 580.966 794.822 580.611&#10;C 794.414 579.603 794.679 577.686 794.07 576.915&#10;C 784.24 585.38 768.744 583.389 759.823 574.561&#10;C 753.336 568.142 750.154 558.631 751.461 549.592 Z&#10;M 765.892 550.077&#10;C 765.423 552.141 765.53 554.532 765.888 556.608&#10;C 768.074 569.254 785.708 573.116 792.595 562.102&#10;C 793.503 560.652 794.21 559.054 794.564 557.374&#10;C 795.884 551.124 793.703 544.305 788.183 540.791&#10;C 779.651 535.36 768.1 540.368 765.892 550.077 Z"/>
<path fill-rule="evenodd" fill="rgb(21,86,19)" opacity="1" d="M 820.27 527.989&#10;C 821.856 524.681 826.903 525.874 829.903 525.94&#10;C 831.111 525.967 832.825 525.872 833.785 526.695&#10;C 834.395 527.654 834.555 528.7 834.603 529.821&#10;C 835.691 529.656 837.152 527.672 838.243 527.06&#10;C 841.261 525.368 845.124 524.893 848.538 525.142&#10;C 849.685 525.225 851.133 525.256 852.122 525.875&#10;C 853.043 528.676 852.475 532.758 852.425 535.689&#10;C 852.408 536.69 852.549 538.187 852.017 539.072&#10;C 850.225 539.533 848.121 539.015 846.283 539.089&#10;C 841.736 539.273 837.793 541.464 835.904 545.776&#10;C 834.535 548.897 834.801 552.286 834.81 555.612&#10;C 834.823 560.91 834.899 566.208 834.898 571.506&#10;C 834.898 574.053 836.106 579.403 833.579 580.912&#10;C 830.717 581.678 827.133 581.033 824.192 581.082&#10;C 823.037 581.101 821.743 581.187 820.944 580.217&#10;C 820.056 579.138 820.345 577.484 820.344 576.176&#10;C 820.341 573.119 820.297 570.061 820.286 567.004&#10;C 820.254 558.337 820.251 549.67 820.236 541.003&#10;C 820.229 536.785 819.648 532.158 820.27 527.989 Z"/>
<path fill-rule="evenodd" fill="rgb(20,87,19)" opacity="1" d="M 855.963 549.091&#10;C 857.291 543.681 858.73 538.837 862.463 534.508&#10;C 871.326 524.232 888.1 520.794 898.763 530.402&#10;C 898.519 530.635 898.731 529.729 898.732 529.392&#10;C 898.733 528.846 898.753 528.299 898.766 527.753&#10;C 898.807 526.005 898.808 524.251 898.819 522.501&#10;C 898.84 519.169 898.83 515.835 898.821 512.502&#10;C 898.817 510.884 898.576 509.1 899.299 507.608&#10;C 901.187 505.456 905.936 506.487 908.559 506.549&#10;C 909.461 506.57 910.505 506.454 911.376 506.73&#10;C 912.237 507.004 913.171 507.895 913.401 508.781&#10;C 913.806 510.336 913.473 512.404 913.481 514.008&#10;C 913.502 517.941 913.477 521.874 913.47 525.807&#10;C 913.447 538.365 913.632 550.936 913.7 563.5&#10;C 913.722 567.612 913.642 571.726 913.702 575.837&#10;C 913.726 577.488 914.105 579.508 912.55 580.576&#10;C 909.855 581.46 906.294 581.037 903.5 580.868&#10;C 902.209 580.79 900.931 580.79 899.782 580.124&#10;C 899.146 578.956 899.467 577.708 899.183 576.474&#10;C 895.492 578.907 892.376 581.202 887.884 582.006&#10;C 876.237 584.092 864.369 577.804 858.915 567.425&#10;C 856.018 561.912 855.141 555.222 855.963 549.091 Z&#10;M 870.403 550.078&#10;C 869.905 552.158 870.005 554.474 870.37 556.568&#10;C 872.6 569.383 889.77 572.958 896.976 562.209&#10;C 897.941 560.768 898.731 559.103 899.097 557.402&#10;C 899.661 554.777 899.737 551.768 898.959 549.176&#10;C 898.366 547.199 897.306 545.262 895.986 543.676&#10;C 888.268 534.404 873.121 538.734 870.403 550.078 Z"/>

</svg>